<svg xmlns="http://www.w3.org/2000/svg" viewBox="0 0 456.14 307"><defs><style>.cls-1{fill:#3b4d66;}.cls-2{fill:#324154;}.cls-3{fill:#293747;}.cls-4{fill:#463e3b;}.cls-5{fill:#b63f34;}.cls-6{fill:#deb459;}.cls-7{fill:#25c73a;}.cls-8{fill:#f86c97;}.cls-9{fill:#f0cd00;}.cls-10{fill:#a7f192;}.cls-11{fill:#f8afee;}</style></defs><title>Asset 430</title><g id="Layer_2" data-name="Layer 2"><g id="Layer_1-2" data-name="Layer 1"><rect class="cls-1" x="0.64" y="2" width="453.14" height="304" rx="12" ry="12"/><path class="cls-2" d="M445.18,1.24A11.88,11.88,0,0,1,445.8,5V285a12,12,0,0,1-12,12H4.66a11.94,11.94,0,0,1-2.38-.24A12,12,0,0,0,13.67,305H442.8a12,12,0,0,0,12-12V13A12,12,0,0,0,445.18,1.24Z"/><rect class="cls-3" x="2.64" y="34.5" width="451" height="1"/><path class="cls-4" d="M442.64,307H13.5A13.52,13.52,0,0,1,0,293.5V13.5A13.52,13.52,0,0,1,13.5,0H442.64a13.52,13.52,0,0,1,13.5,13.5v280A13.52,13.52,0,0,1,442.64,307ZM13.5,3A10.51,10.51,0,0,0,3,13.5v280A10.51,10.51,0,0,0,13.5,304H442.64a10.51,10.51,0,0,0,10.5-10.5V13.5A10.51,10.51,0,0,0,442.64,3Z"/><rect class="cls-3" x="44.64" y="15" width="393" height="9" rx="4.5" ry="4.5"/><circle class="cls-5" cx="18.29" cy="18.17" r="2.66"/><circle class="cls-6" cx="25.46" cy="18.17" r="2.66"/><circle class="cls-7" cx="32.64" cy="18.17" r="2.66"/><path class="cls-8" d="M137.14,88.33H55.55c-.83,0-1.5-.12-1.5-1.5h0c0-1.38.67-1.5,1.5-1.5h81.58c.83,0,1.5.12,1.5,1.5h0C138.64,88.21,138,88.33,137.14,88.33Z"/><path class="cls-9" d="M111.6,94.67H55.09c-.57,0-1-.12-1-1.5h0c0-1.38.47-1.5,1-1.5H111.6c.57,0,1,.12,1,1.5h0C112.64,94.55,112.17,94.67,111.6,94.67Z"/><path class="cls-10" d="M114.54,82H55.14c-.6,0-1.09-.12-1.09-1.5h0c0-1.38.49-1.5,1.09-1.5h59.4c.6,0,1.09.12,1.09,1.5h0C115.64,81.88,115.15,82,114.54,82Z"/><path class="cls-10" d="M179.54,82h-59.4c-.6,0-1.09-.12-1.09-1.5h0c0-1.38.49-1.5,1.09-1.5h59.4c.6,0,1.09.12,1.09,1.5h0C180.64,81.88,180.15,82,179.54,82Z"/><path class="cls-11" d="M114.54,101H55.14c-.6,0-1.09-.12-1.09-1.5h0c0-1.38.49-1.5,1.09-1.5h59.4c.6,0,1.09.12,1.09,1.5h0C115.64,100.88,115.15,101,114.54,101Z"/><path class="cls-11" d="M179.54,101h-59.4c-.6,0-1.09-.12-1.09-1.5h0c0-1.38.49-1.5,1.09-1.5h59.4c.6,0,1.09.12,1.09,1.5h0C180.64,100.88,180.15,101,179.54,101Z"/><path class="cls-8" d="M137.14,169H55.55c-.83,0-1.5-.12-1.5-1.5h0c0-1.38.67-1.5,1.5-1.5h81.58c.83,0,1.5.12,1.5,1.5h0C138.64,168.88,138,169,137.14,169Z"/><path class="cls-9" d="M111.6,175.33H55.09c-.57,0-1-.12-1-1.5h0c0-1.38.47-1.5,1-1.5H111.6c.57,0,1,.12,1,1.5h0C112.64,175.21,112.17,175.33,111.6,175.33Z"/><path class="cls-10" d="M114.54,162.67H55.14c-.6,0-1.09-.12-1.09-1.5h0c0-1.38.49-1.5,1.09-1.5h59.4c.6,0,1.09.12,1.09,1.5h0C115.64,162.55,115.15,162.67,114.54,162.67Z"/><path class="cls-10" d="M179.54,162.67h-59.4c-.6,0-1.09-.12-1.09-1.5h0c0-1.38.49-1.5,1.09-1.5h59.4c.6,0,1.09.12,1.09,1.5h0C180.64,162.55,180.15,162.67,179.54,162.67Z"/><path class="cls-11" d="M114.54,181.67H55.14c-.6,0-1.09-.12-1.09-1.5h0c0-1.38.49-1.5,1.09-1.5h59.4c.6,0,1.09.12,1.09,1.5h0C115.64,181.55,115.15,181.67,114.54,181.67Z"/><path class="cls-11" d="M179.54,181.67h-59.4c-.6,0-1.09-.12-1.09-1.5h0c0-1.38.49-1.5,1.09-1.5h59.4c.6,0,1.09.12,1.09,1.5h0C180.64,181.55,180.15,181.67,179.54,181.67Z"/><path class="cls-8" d="M137.14,209.33H55.55c-.83,0-1.5-.12-1.5-1.5h0c0-1.38.67-1.5,1.5-1.5h81.58c.83,0,1.5.12,1.5,1.5h0C138.64,209.21,138,209.33,137.14,209.33Z"/><path class="cls-9" d="M111.6,215.67H55.09c-.57,0-1-.12-1-1.5h0c0-1.38.47-1.5,1-1.5H111.6c.57,0,1,.12,1,1.5h0C112.64,215.55,112.17,215.67,111.6,215.67Z"/><path class="cls-10" d="M114.54,203H55.14c-.6,0-1.09-.12-1.09-1.5h0c0-1.38.49-1.5,1.09-1.5h59.4c.6,0,1.09.12,1.09,1.5h0C115.64,202.88,115.15,203,114.54,203Z"/><path class="cls-10" d="M179.54,203h-59.4c-.6,0-1.09-.12-1.09-1.5h0c0-1.38.49-1.5,1.09-1.5h59.4c.6,0,1.09.12,1.09,1.5h0C180.64,202.88,180.15,203,179.54,203Z"/><path class="cls-11" d="M114.54,222H55.14c-.6,0-1.09-.12-1.09-1.5h0c0-1.38.49-1.5,1.09-1.5h59.4c.6,0,1.09.12,1.09,1.5h0C115.64,221.88,115.15,222,114.54,222Z"/><path class="cls-11" d="M179.54,222h-59.4c-.6,0-1.09-.12-1.09-1.5h0c0-1.38.49-1.5,1.09-1.5h59.4c.6,0,1.09.12,1.09,1.5h0C180.64,221.88,180.15,222,179.54,222Z"/><path class="cls-8" d="M137.14,128.67H55.55c-.83,0-1.5-.12-1.5-1.5h0c0-1.38.67-1.5,1.5-1.5h81.58c.83,0,1.5.12,1.5,1.5h0C138.64,128.55,138,128.67,137.14,128.67Z"/><path class="cls-9" d="M111.6,135H55.09c-.57,0-1-.12-1-1.5h0c0-1.38.47-1.5,1-1.5H111.6c.57,0,1,.12,1,1.5h0C112.64,134.88,112.17,135,111.6,135Z"/><path class="cls-10" d="M114.54,122.33H55.14c-.6,0-1.09-.12-1.09-1.5h0c0-1.38.49-1.5,1.09-1.5h59.4c.6,0,1.09.12,1.09,1.5h0C115.64,122.21,115.15,122.33,114.54,122.33Z"/><path class="cls-10" d="M179.54,122.33h-59.4c-.6,0-1.09-.12-1.09-1.5h0c0-1.38.49-1.5,1.09-1.5h59.4c.6,0,1.09.12,1.09,1.5h0C180.64,122.21,180.15,122.33,179.54,122.33Z"/><path class="cls-11" d="M114.54,141.33H55.14c-.6,0-1.09-.12-1.09-1.5h0c0-1.38.49-1.5,1.09-1.5h59.4c.6,0,1.09.12,1.09,1.5h0C115.64,141.21,115.15,141.33,114.54,141.33Z"/><path class="cls-11" d="M179.54,141.33h-59.4c-.6,0-1.09-.12-1.09-1.5h0c0-1.38.49-1.5,1.09-1.5h59.4c.6,0,1.09.12,1.09,1.5h0C180.64,141.21,180.15,141.33,179.54,141.33Z"/></g></g></svg>